<?xml version="1.0" standalone="no"?>
<!DOCTYPE svg PUBLIC "-//W3C//DTD SVG 20010904//EN"
 "http://www.w3.org/TR/2001/REC-SVG-20010904/DTD/svg10.dtd">
<svg version="1.0" xmlns="http://www.w3.org/2000/svg"
 width="700.000000pt" height="700.000000pt" viewBox="0 0 700.000000 700.000000"
 preserveAspectRatio="xMidYMid meet">
<metadata>
Created by potrace 1.14, written by Peter Selinger 2001-2017
</metadata>
<g transform="translate(0.000000,700.000000) scale(0.100000,-0.100000)"
fill="#000000" stroke="none">
<path d="M778 6209 c-24 -4 -63 -16 -85 -28 -54 -27 -118 -104 -133 -158 -10
-33 -12 -609 -12 -2505 0 -2173 2 -2467 15 -2498 28 -64 74 -116 128 -146 l54
-29 455 0 455 0 45 24 c76 39 131 110 146 186 4 22 8 697 9 1500 1 1235 4
1466 16 1497 21 56 82 123 136 149 l48 24 1424 3 c1625 3 1496 9 1585 -82 33
-33 57 -69 66 -97 12 -37 14 -277 15 -1509 1 -1075 5 -1476 13 -1506 17 -60
73 -127 134 -160 l53 -29 455 0 455 0 54 30 c62 34 114 98 132 162 9 33 11
629 11 2485 0 1344 -3 2458 -6 2477 -16 81 -77 155 -161 192 -50 22 -54 23
-565 23 l-515 0 -55 -26 c-47 -22 -167 -137 -852 -823 l-798 -798 -797 798
c-683 683 -806 801 -853 823 l-54 25 -487 1 c-267 1 -506 -2 -531 -5z"/>
<path d="M2315 3971 c-47 -12 -94 -39 -131 -78 -46 -47 -62 -79 -71 -144 -5
-30 -8 -643 -7 -1364 1 -1302 1 -1310 22 -1356 26 -60 82 -115 146 -145 l50
-23 1186 2 1185 2 43 23 c80 42 129 105 147 187 8 35 10 435 9 1365 -1 1187
-3 1319 -17 1358 -24 63 -68 114 -129 148 l-53 29 -1175 2 c-646 0 -1188 -2
-1205 -6z m2172 -279 c69 -22 129 -78 165 -151 18 -38 22 -62 22 -160 -1 -127
-15 -173 -72 -236 -67 -74 -116 -88 -332 -91 -96 -1 -186 -5 -200 -8 -75 -17
-166 -110 -190 -194 -6 -24 -10 -314 -10 -802 -1 -834 1 -803 -60 -879 -67
-86 -139 -108 -343 -105 -115 2 -133 5 -180 28 -63 31 -97 64 -131 131 l-25
50 -1 765 c0 421 -2 775 -4 787 -8 38 -42 107 -70 140 -15 18 -52 44 -82 59
-53 26 -62 27 -232 29 -232 3 -258 9 -332 79 -66 62 -83 114 -83 246 0 96 3
123 21 160 36 78 102 136 177 154 59 15 1916 13 1962 -2z"/>
</g>
</svg>
